<?xml version="1.0" encoding="utf-8"?>
<!-- Generator: Adobe Illustrator 16.0.4, SVG Export Plug-In . SVG Version: 6.00 Build 0)  -->
<!DOCTYPE svg PUBLIC "-//W3C//DTD SVG 1.1//EN" "http://www.w3.org/Graphics/SVG/1.1/DTD/svg11.dtd">
<svg version="1.1" id="Ebene_1" xmlns="http://www.w3.org/2000/svg" xmlns:xlink="http://www.w3.org/1999/xlink" x="0px" y="0px"
	 width="138px" height="18.264px" viewBox="0 0 138 18.264" style="enable-background:new 0 0 138 18.264;" xml:space="preserve">
<style type="text/css">
<![CDATA[
	.st0{clip-path:url(#SVGID_2_);}
]]>
</style>
<g>
	<defs>
		<rect id="SVGID_1_" width="138" height="18.264"/>
	</defs>
	<clipPath id="SVGID_2_">
		<use xlink:href="#SVGID_1_"  style="overflow:visible;"/>
	</clipPath>
	<path class="st0" d="M47.727,10.855v3.739h1.245c0.652,0,1.316-0.431,1.561-0.934c0.194-0.399,0.327-1.182-0.018-1.915
		c-0.455-0.966-1.449-0.879-1.544-0.891H47.727z M47.732,3.477v3.458h1.232c0.652,0,1.137-0.397,1.363-0.863
		c0.179-0.37,0.308-1.094-0.018-1.77c-0.394-0.819-1.158-0.817-1.338-0.825H47.732z M39.053,0c0,0,12.411,0.003,14.532,0.002
		c4.052-0.004,5.006,3.038,5.013,4.823c0.012,3.208-2.236,3.996-2.236,3.996s2.422,0.914,2.422,4.333
		c0,5.326-4.884,5.108-5.64,5.108H39.053V0z M95.453,18.264V14.07h-3.95v-3.328h3.909V7.109h-3.909V3.591h3.95V0.002H82.472v18.262
		H95.453z M71.881,18.264h9.022V0.002h-9.022V6.92h-2.925V0.002h-9.231v18.262h9.231V10.59h2.925V18.264z M37.828,18.264V14.07
		h-3.951v-3.328h3.909V7.109h-3.909V3.591h3.951V0.002H24.844v18.262H37.828z M14.401,0.002h8.872v18.262h-8.872V0.002z
		 M13.102,18.264v-5.041H9.15V0.002H0v18.262H13.102z M105.089,3.477v4.326h1.081c1.171,0,1.587-0.553,1.844-1.137
		c0.204-0.463,0.34-1.299,0.001-2.156c-0.186-0.466-0.674-1.032-1.845-1.032H105.089z M96.716,0.002L110.332,0
		c4.267,0,5.88,2.883,5.88,5.371c0,4.237-3.82,4.995-3.82,4.995l4.949,7.896h-9.956l-2.14-5.245l0.004,5.245h-8.533V0.002z
		 M125.748,3.477v4.326h1.082c1.173,0,1.588-0.553,1.843-1.137c0.204-0.463,0.341-1.299,0-2.156
		c-0.184-0.466-0.67-1.032-1.844-1.032H125.748z M117.377,0.002L130.991,0c4.268,0,5.881,2.883,5.881,5.371
		c0,4.237-3.82,4.995-3.82,4.995L138,18.262h-9.955l-2.139-5.245l0.003,5.245h-8.532V0.002z"/>
</g>
</svg>
